<svg xmlns="http://www.w3.org/2000/svg" id="svg" style="width:500px; height:300px; background-color: white"><circle cx="126" cy="152.8000030517578" r="5" style="fill: black;"/><circle cx="147" cy="133.8000030517578" r="5" style="fill: black;"/><line x1="126" y1="152.8000030517578" x2="147" y2="133.8000030517578" style="stroke: red; stroke-width: 2px;"/><circle cx="147" cy="133.8000030517578" r="5" style="fill: black;"/><circle cx="191" cy="100.80000305175781" r="5" style="fill: black;"/><line x1="147" y1="133.8000030517578" x2="191" y2="100.80000305175781" style="stroke: red; stroke-width: 2px;"/><circle cx="191" cy="100.80000305175781" r="5" style="fill: black;"/><circle cx="225" cy="78.80000305175781" r="5" style="fill: black;"/><line x1="191" y1="100.80000305175781" x2="225" y2="78.80000305175781" style="stroke: red; stroke-width: 2px;"/><circle cx="225" cy="78.80000305175781" r="5" style="fill: black;"/><circle cx="243" cy="72.80000305175781" r="5" style="fill: black;"/><line x1="225" y1="78.80000305175781" x2="243" y2="72.80000305175781" style="stroke: red; stroke-width: 2px;"/><circle cx="243" cy="72.80000305175781" r="5" style="fill: black;"/><circle cx="260" cy="68.80000305175781" r="5" style="fill: black;"/><line x1="243" y1="72.80000305175781" x2="260" y2="68.80000305175781" style="stroke: red; stroke-width: 2px;"/><circle cx="260" cy="68.80000305175781" r="5" style="fill: black;"/><circle cx="282" cy="66.80000305175781" r="5" style="fill: black;"/><line x1="260" y1="68.80000305175781" x2="282" y2="66.80000305175781" style="stroke: red; stroke-width: 2px;"/><circle cx="282" cy="66.80000305175781" r="5" style="fill: black;"/><circle cx="292" cy="67.80000305175781" r="5" style="fill: black;"/><line x1="282" y1="66.80000305175781" x2="292" y2="67.80000305175781" style="stroke: red; stroke-width: 2px;"/><circle cx="292" cy="67.80000305175781" r="5" style="fill: black;"/><circle cx="301" cy="68.80000305175781" r="5" style="fill: black;"/><line x1="292" y1="67.80000305175781" x2="301" y2="68.80000305175781" style="stroke: red; stroke-width: 2px;"/><circle cx="301" cy="68.80000305175781" r="5" style="fill: black;"/><circle cx="307" cy="70.80000305175781" r="5" style="fill: black;"/><line x1="301" y1="68.80000305175781" x2="307" y2="70.80000305175781" style="stroke: red; stroke-width: 2px;"/><circle cx="307" cy="70.80000305175781" r="5" style="fill: black;"/><circle cx="309" cy="70.80000305175781" r="5" style="fill: black;"/><line x1="307" y1="70.80000305175781" x2="309" y2="70.80000305175781" style="stroke: red; stroke-width: 2px;"/><circle cx="309" cy="70.80000305175781" r="5" style="fill: black;"/><circle cx="309" cy="70.80000305175781" r="5" style="fill: black;"/><line x1="309" y1="70.80000305175781" x2="309" y2="70.80000305175781" style="stroke: red; stroke-width: 2px;"/><circle cx="309" cy="70.80000305175781" r="5" style="fill: black;"/><circle cx="311" cy="70.80000305175781" r="5" style="fill: black;"/><line x1="309" y1="70.80000305175781" x2="311" y2="70.80000305175781" style="stroke: red; stroke-width: 2px;"/><circle cx="311" cy="70.80000305175781" r="5" style="fill: black;"/><circle cx="311" cy="70.80000305175781" r="5" style="fill: black;"/><line x1="311" y1="70.80000305175781" x2="311" y2="70.80000305175781" style="stroke: red; stroke-width: 2px;"/><circle cx="311" cy="70.80000305175781" r="5" style="fill: black;"/><circle cx="311" cy="71.80000305175781" r="5" style="fill: black;"/><line x1="311" y1="70.80000305175781" x2="311" y2="71.80000305175781" style="stroke: red; stroke-width: 2px;"/></svg>